<?xml version="1.0" encoding="UTF-8" standalone="no"?>
<!-- Created with Inkscape (http://www.inkscape.org/) -->

<svg
   width="75.582977mm"
   height="17.165436mm"
   viewBox="0 0 75.582977 17.165436"
   version="1.1"
   id="svg1"
   xml:space="preserve"
   inkscape:version="1.4.2 (ebf0e940d0, 2025-05-08)"
   sodipodi:docname="logo-2.svg"
   xmlns:inkscape="http://www.inkscape.org/namespaces/inkscape"
   xmlns:sodipodi="http://sodipodi.sourceforge.net/DTD/sodipodi-0.dtd"
   xmlns="http://www.w3.org/2000/svg"
   xmlns:svg="http://www.w3.org/2000/svg"><sodipodi:namedview
     id="namedview1"
     pagecolor="#ffffff"
     bordercolor="#000000"
     borderopacity="0.25"
     inkscape:showpageshadow="2"
     inkscape:pageopacity="0.0"
     inkscape:pagecheckerboard="0"
     inkscape:deskcolor="#d1d1d1"
     inkscape:document-units="mm"
     inkscape:zoom="1.5156072"
     inkscape:cx="133.60982"
     inkscape:cy="134.92942"
     inkscape:window-width="1364"
     inkscape:window-height="1200"
     inkscape:window-x="0"
     inkscape:window-y="0"
     inkscape:window-maximized="0"
     inkscape:current-layer="layer1"
     inkscape:export-bgcolor="#ffffff00"><inkscape:page
       x="0"
       y="0"
       width="75.582977"
       height="17.165436"
       id="page2"
       margin="0"
       bleed="0" /></sodipodi:namedview><defs
     id="defs1" /><g
     inkscape:label="Layer 1"
     inkscape:groupmode="layer"
     id="layer1"
     transform="translate(-8.0122793,-5.3613827)"><g
       id="text1-3"
       style="font-weight:bold;font-size:22.5778px;line-height:0.7;font-family:'TeX Gyre Chorus';-inkscape-font-specification:'TeX Gyre Chorus Bold';text-align:center;text-anchor:middle;fill:none;stroke:#44aa00;stroke-width:0.499999"
       aria-label="ScensΛi"><path
         style="font-weight:normal;font-family:'Trebuchet MS';-inkscape-font-specification:'Trebuchet MS';fill:#215f5f;stroke:none;stroke-width:0.5"
         d="m 8.0563767,21.512582 0.8047751,-2.028474 q 0.6173617,0.451997 1.5323802,0.760678 0.926042,0.297656 1.653647,0.297656 1.289845,0 2.072572,-0.705556 0.782726,-0.705556 0.782726,-1.796964 0,-0.815799 -0.440972,-1.510331 -0.429949,-0.705557 -2.182815,-1.53238 L 10.977821,14.390873 Q 9.3241731,13.619171 8.6627141,12.560837 8.0122794,11.502502 8.0122794,10.01422 q 0,-1.8079884 1.2788208,-2.9986146 1.2788208,-1.1906262 3.2852468,-1.1906262 2.678909,0 3.726219,0.870921 L 15.652131,8.6141313 Q 15.211158,8.2944261 14.307164,7.9967696 13.40317,7.699113 12.631468,7.699113 q -1.12448,0 -1.774915,0.6394104 -0.63941,0.6394104 -0.63941,1.6426232 0,0.6173614 0.23151,1.1244804 0.231511,0.507118 0.639411,0.848872 0.418924,0.341754 1.697745,0.959116 l 1.322918,0.628386 q 1.653647,0.782726 2.315106,1.874134 0.672483,1.080383 0.672483,2.756079 0,1.819012 -1.466234,3.086809 -1.45521,1.267796 -3.902608,1.267796 -2.1497416,0 -3.6710973,-1.014237 z M 28.385216,11.403283 27.348931,12.880542 q -0.319706,-0.319705 -1.135505,-0.606338 -0.804775,-0.286632 -1.587502,-0.286632 -1.708769,0 -2.711982,1.201651 -1.003212,1.190626 -1.003212,3.274222 0,2.072571 1.025261,3.163979 1.025261,1.080383 2.844274,1.080383 1.411112,0 2.844273,-1.091408 l 0.826824,1.763891 q -1.68672,1.091408 -4.178216,1.091408 -2.414325,0 -3.990802,-1.620575 -1.576478,-1.620575 -1.576478,-4.387678 0,-2.822225 1.631599,-4.530994 1.642623,-1.708769 4.486897,-1.708769 0.915018,0 1.984377,0.385851 1.069359,0.385851 1.576477,0.79375 z m 12.214944,5.148356 h -8.510773 q 0,2.072572 1.135505,3.186028 1.003213,0.97014 2.57969,0.97014 1.796963,0 2.998614,-1.04731 l 0.881945,1.510331 q -0.48507,0.48507 -1.488282,0.837848 -1.256773,0.463022 -2.800177,0.463022 -2.226912,0 -3.781341,-1.510332 -1.730817,-1.664672 -1.730817,-4.475873 0,-2.921443 1.774915,-4.685334 1.587501,-1.576477 3.759292,-1.576477 2.524568,0 3.957729,1.422136 1.389064,1.367016 1.389064,3.627001 0,0.694532 -0.165364,1.27882 z m -5.08221,-4.564067 q -1.400089,0 -2.34818,0.903994 -0.903994,0.859897 -1.025261,2.138718 h 6.53742 q 0,-1.267797 -0.793751,-2.116669 -0.870921,-0.926043 -2.370228,-0.926043 z m 14.717464,10.263639 v -6.868149 q 0,-1.885158 -0.573265,-2.634812 -0.56224,-0.760678 -1.896182,-0.760678 -0.716581,0 -1.499307,0.429949 -0.782727,0.429948 -1.201651,1.058334 v 8.775356 h -2.09462 V 10.444168 h 1.433161 l 0.661459,1.521356 q 1.036286,-1.741842 3.384466,-1.741842 3.880559,0 3.880559,4.718407 v 7.309122 z m 4.299481,-0.705556 0.73863,-1.984377 q 1.752866,1.146529 2.822225,1.146529 1.940279,0 1.940279,-1.631599 0,-1.168578 -1.874133,-2.006426 -1.444186,-0.661459 -1.951305,-1.003213 -0.496094,-0.341753 -0.870921,-0.771702 -0.363802,-0.440972 -0.551215,-0.926042 -0.176389,-0.496095 -0.176389,-1.058335 0,-1.45521 1.058334,-2.271009 1.058334,-0.815799 2.767103,-0.815799 1.289846,0 3.252174,0.815799 l -0.595313,1.94028 q -1.245748,-0.992189 -2.50252,-0.992189 -0.749654,0 -1.267797,0.352778 -0.507118,0.352779 -0.507118,0.89297 0,1.135505 1.289845,1.719793 l 1.499307,0.683508 q 1.37804,0.628386 2.006426,1.433161 0.628386,0.804775 0.628386,2.01745 0,1.587502 -1.113456,2.491496 -1.113456,0.89297 -3.086809,0.89297 -1.863109,0 -3.505733,-0.926043 z"
         id="path1" /><path
         style="font-weight:normal;font-family:'TeX Gyre Schola';-inkscape-font-specification:'TeX Gyre Schola';stroke:#000000;stroke-width:0.5"
         d="m 79.461847,22.251211 v -1.061156 h -0.428978 c -1.12889,0 -1.264357,-0.180623 -1.783646,-1.44498 L 71.491884,5.6339498 H 70.543616 L 65.350722,18.796808 c -0.812801,2.05458 -1.12889,2.393247 -2.25778,2.393247 h -0.31609 v 1.061156 h 5.983118 v -1.061156 h -0.451556 c -1.219202,0 -1.828802,-0.428979 -1.828802,-1.286935 0,-0.270934 0.06773,-0.587023 0.2032,-0.948268 l 3.702759,-9.6181429 4.244627,10.6567219 c 0.135467,0.338667 0.180622,0.496712 0.180622,0.609601 0,0.361245 -0.564445,0.587023 -1.399823,0.587023 h -0.948268 v 1.061156 z"
         id="path2" /><path
         style="font-weight:normal;font-family:Sans;-inkscape-font-specification:Sans;stroke:#000000;stroke-width:0.5"
         d="M 83.164605,10.14951 V 22.251211 H 81.177758 V 10.14951 Z M 82.193759,5.611372 q 0.451556,0 0.790223,0.3160892 0.361245,0.2935114 0.361245,0.9482677 0,0.6321784 -0.361245,0.9482676 -0.338667,0.3160892 -0.790223,0.3160892 -0.496711,0 -0.835378,-0.3160892 -0.338667,-0.3160892 -0.338667,-0.9482676 0,-0.6547563 0.338667,-0.9482677 0.338667,-0.3160892 0.835378,-0.3160892 z"
         id="path3" /></g></g></svg>
