<?xml version="1.0" encoding="UTF-8" standalone="no"?>
<!-- Created with Inkscape (http://www.inkscape.org/) -->

<svg
   width="75.582985mm"
   height="17.165436mm"
   viewBox="0 0 75.582985 17.165436"
   version="1.1"
   id="svg1"
   xml:space="preserve"
   sodipodi:docname="logo.svg"
   inkscape:version="1.4.2 (ebf0e940d0, 2025-05-08)"
   xmlns:inkscape="http://www.inkscape.org/namespaces/inkscape"
   xmlns:sodipodi="http://sodipodi.sourceforge.net/DTD/sodipodi-0.dtd"
   xmlns="http://www.w3.org/2000/svg"
   xmlns:svg="http://www.w3.org/2000/svg"><sodipodi:namedview
     id="namedview1"
     pagecolor="#005050"
     bordercolor="#000000"
     borderopacity="0.25"
     inkscape:showpageshadow="2"
     inkscape:pageopacity="0.0"
     inkscape:pagecheckerboard="0"
     inkscape:deskcolor="#d1d1d1"
     inkscape:document-units="mm"
     inkscape:zoom="2.1769154"
     inkscape:cx="167.43876"
     inkscape:cy="89.116924"
     inkscape:window-width="1570"
     inkscape:window-height="1403"
     inkscape:window-x="0"
     inkscape:window-y="0"
     inkscape:window-maximized="0"
     inkscape:current-layer="svg1" /><defs
     id="defs1" /><g
     id="layer1"
     transform="translate(-8.2603185,-32.711748)"><g
       id="text1-3-4"
       style="font-weight:bold;font-size:22.5778px;line-height:0.7;font-family:'TeX Gyre Chorus';-inkscape-font-specification:'TeX Gyre Chorus Bold';text-align:center;text-anchor:middle;fill:none;stroke:#44aa00;stroke-width:0.499999"
       aria-label="ScensΛi"><path
         style="font-weight:normal;font-family:'Trebuchet MS';-inkscape-font-specification:'Trebuchet MS';fill:#ffffff;stroke:none;stroke-width:0.5"
         d="m 8.3044121,48.862949 0.8047751,-2.028475 q 0.6173618,0.451997 1.5323798,0.760678 0.926043,0.297657 1.653648,0.297657 1.289845,0 2.072571,-0.705557 0.782727,-0.705556 0.782727,-1.796963 0,-0.8158 -0.440973,-1.510332 -0.429948,-0.705556 -2.182815,-1.53238 L 11.225856,41.74124 Q 9.5722085,40.969538 8.9107495,39.911203 8.2603148,38.852869 8.2603148,37.364586 q 0,-1.807988 1.2788208,-2.998614 1.2788204,-1.190626 3.2852464,-1.190626 2.678909,0 3.726219,0.870921 l -0.650435,1.918231 Q 15.459194,35.644793 14.5552,35.347136 13.651206,35.04948 12.879504,35.04948 q -1.124481,0 -1.774915,0.63941 -0.639411,0.63941 -0.639411,1.642623 0,0.617362 0.231511,1.124481 0.23151,0.507118 0.63941,0.848872 0.418924,0.341754 1.697745,0.959115 l 1.322918,0.628387 q 1.653648,0.782726 2.315107,1.874133 0.672483,1.080383 0.672483,2.75608 0,1.819012 -1.466234,3.086808 -1.45521,1.267797 -3.902608,1.267797 -2.1497422,0 -3.6710979,-1.014237 z M 28.633252,38.75365 27.596966,40.230909 q -0.319705,-0.319706 -1.135505,-0.606338 -0.804775,-0.286632 -1.587501,-0.286632 -1.708769,0 -2.711982,1.20165 -1.003213,1.190627 -1.003213,3.274222 0,2.072572 1.025261,3.163979 1.025262,1.080383 2.844274,1.080383 1.411113,0 2.844274,-1.091407 l 0.826824,1.763891 q -1.686721,1.091407 -4.178216,1.091407 -2.414326,0 -3.990803,-1.620574 -1.576477,-1.620575 -1.576477,-4.387679 0,-2.822225 1.631599,-4.530994 1.642623,-1.708769 4.486896,-1.708769 0.915019,0 1.984377,0.385851 1.069359,0.385851 1.576478,0.793751 z m 12.214943,5.148356 h -8.510772 q 0,2.072572 1.135504,3.186028 1.003213,0.970139 2.57969,0.970139 1.796964,0 2.998614,-1.04731 l 0.881946,1.510332 q -0.48507,0.48507 -1.488283,0.837848 -1.256772,0.463021 -2.800176,0.463021 -2.226912,0 -3.781341,-1.510331 -1.730818,-1.664672 -1.730818,-4.475873 0,-2.921444 1.774915,-4.685335 1.587502,-1.576477 3.759292,-1.576477 2.524569,0 3.95773,1.422137 1.389064,1.367015 1.389064,3.627 0,0.694532 -0.165365,1.278821 z m -5.08221,-4.564067 q -1.400088,0 -2.348179,0.903994 -0.903994,0.859897 -1.025262,2.138717 h 6.53742 q 0,-1.267796 -0.793751,-2.116669 -0.870921,-0.926042 -2.370228,-0.926042 z m 14.717464,10.263639 v -6.86815 q 0,-1.885158 -0.573264,-2.634811 -0.56224,-0.760678 -1.896183,-0.760678 -0.71658,0 -1.499307,0.429948 -0.782726,0.429949 -1.20165,1.058335 v 8.775356 h -2.09462 V 37.794534 h 1.433161 l 0.661459,1.521356 q 1.036286,-1.741842 3.384465,-1.741842 3.88056,0 3.88056,4.718408 v 7.309122 z m 4.299482,-0.705557 0.738629,-1.984377 q 1.752866,1.146529 2.822225,1.146529 1.94028,0 1.94028,-1.631598 0,-1.168578 -1.874134,-2.006426 -1.444186,-0.661459 -1.951304,-1.003213 -0.496094,-0.341754 -0.870921,-0.771702 -0.363803,-0.440973 -0.551216,-0.926043 -0.176389,-0.496094 -0.176389,-1.058334 0,-1.45521 1.058334,-2.271009 1.058335,-0.8158 2.767104,-0.8158 1.289845,0 3.252173,0.8158 l -0.595313,1.940279 q -1.245748,-0.992188 -2.50252,-0.992188 -0.749653,0 -1.267796,0.352778 -0.507119,0.352778 -0.507119,0.89297 0,1.135504 1.289845,1.719793 l 1.499307,0.683508 q 1.37804,0.628386 2.006426,1.433161 0.628386,0.804775 0.628386,2.01745 0,1.587501 -1.113456,2.491495 -1.113456,0.89297 -3.086809,0.89297 -1.863109,0 -3.505732,-0.926043 z"
         id="path1" /><path
         style="font-weight:normal;font-family:'TeX Gyre Schola';-inkscape-font-specification:'TeX Gyre Schola';stroke:#ffffff;stroke-width:0.5"
         d="m 79.709883,49.601578 v -1.061157 h -0.428979 c -1.12889,0 -1.264356,-0.180622 -1.783646,-1.444979 L 71.739919,32.984316 h -0.948268 l -5.192894,13.162858 c -0.812801,2.05458 -1.12889,2.393247 -2.25778,2.393247 h -0.316089 v 1.061157 h 5.983117 v -1.061157 h -0.451556 c -1.219201,0 -1.828802,-0.428978 -1.828802,-1.286935 0,-0.270933 0.06773,-0.587022 0.2032,-0.948267 l 3.70276,-9.618143 4.244626,10.656722 c 0.135467,0.338667 0.180623,0.496711 0.180623,0.6096 0,0.361245 -0.564445,0.587023 -1.399824,0.587023 h -0.948268 v 1.061157 z"
         id="path2" /><path
         style="font-weight:normal;font-family:Sans;-inkscape-font-specification:Sans;stroke:#ffffff;stroke-width:0.5"
         d="M 83.41264,37.499877 V 49.601578 H 81.425794 V 37.499877 Z m -0.970845,-4.538138 q 0.451556,0 0.790223,0.316089 0.361245,0.293511 0.361245,0.948267 0,0.632179 -0.361245,0.948268 -0.338667,0.316089 -0.790223,0.316089 -0.496712,0 -0.835379,-0.316089 -0.338667,-0.316089 -0.338667,-0.948268 0,-0.654756 0.338667,-0.948267 0.338667,-0.316089 0.835379,-0.316089 z"
         id="path3" /></g></g></svg>
